<svg width="60" height="38" viewBox="0 0 60 38" fill="none" xmlns="http://www.w3.org/2000/svg">
<path d="M59.3951 34.081L46.4368 22.8056C45.1551 21.6906 43.5151 21.0766 41.8185 21.0766H27.3481L29.8717 14.2302H34.0433C35.0127 14.2302 35.7986 13.4422 35.7986 12.4703C35.7986 11.4983 35.0127 10.7103 34.0433 10.7103H7.30351L3.38017 1.09399C3.01327 0.194411 1.98885 -0.236432 1.09102 0.131404C0.193903 0.499474 -0.235884 1.52718 0.131131 2.42677C2.2857 7.70835 6.45391 17.9249 8.59921 23.1824V35.4102C8.59921 36.3822 9.3851 37.1702 10.3545 37.1702C11.3239 37.1702 12.1097 36.3822 12.1097 35.4102V24.5964C18.745 24.5967 31.6445 24.5967 38.2768 24.5964V35.4102C38.2768 36.3822 39.0627 37.1702 40.0321 37.1702C41.0015 37.1702 41.7874 36.3822 41.7874 35.4102V24.5964H41.8185C42.6699 24.5964 43.4929 24.9045 44.136 25.4641L57.0944 36.7394C57.4265 37.0284 57.8363 37.1702 58.244 37.1702C58.735 37.1702 59.2235 36.9647 59.5704 36.5637C60.2058 35.8298 60.1273 34.7182 59.3951 34.081ZM26.1293 14.2304L23.6057 21.0767H11.5329L8.73966 14.2304H26.1293Z" fill="#01A9B4" fill-opacity="0.5"/>
</svg>
