<svg width="60" height="48" viewBox="0 0 60 48" fill="none" xmlns="http://www.w3.org/2000/svg">
<path d="M59.3224 42.1756C49.2722 34.3456 37.4549 38.9323 25.8068 41.9695L20.5584 22.3804C21.5859 22.3919 22.6254 22.6482 23.5918 23.1727C24.4337 23.6604 25.4926 23.3647 25.9787 22.5607C27.6291 19.8318 31.1746 18.4374 34.7123 20.2469C36.0653 20.939 37.5972 19.6973 37.2108 18.2343C34.6671 8.60313 25.2159 2.78583 15.7452 4.41602L14.9113 1.3034C14.6602 0.365786 13.6966 -0.191088 12.7586 0.0603964C11.8209 0.311646 11.2644 1.27551 11.5157 2.21336L12.3496 5.32575C3.29207 8.6643 -1.94153 18.4608 0.673278 28.0449C1.07746 29.5258 3.07375 29.8175 3.87414 28.4901C5.59726 25.6329 9.28527 24.3953 12.5972 26.1623C13.4295 26.6039 14.4501 26.3126 14.9284 25.522C15.5015 24.5743 16.2761 23.8247 17.1639 23.2952L22.3912 42.8049C15.6709 44.3158 8.91777 44.9098 2.4925 41.9644C1.61019 41.5599 0.566754 41.9474 0.162223 42.8298C-0.242308 43.7124 0.145114 44.7558 1.02765 45.1604C21.1707 54.3939 42.318 33.3837 57.1619 44.9491C57.9276 45.5455 59.0321 45.4086 59.6288 44.6427C60.2254 43.8768 60.0883 42.7722 59.3224 42.1756ZM32.5895 15.9566C30.0676 15.6881 27.5274 16.3929 25.5023 17.9266C24.346 13.9983 22.1759 10.4393 19.0805 7.65813C24.6707 7.70793 29.9561 10.8699 32.5895 15.9566ZM3.53171 23.7497C3.2725 18.1526 6.1573 12.6956 11.0975 9.79223C9.81882 13.7096 9.69484 17.8751 10.6674 21.8985C8.14035 21.5823 5.5832 22.247 3.53171 23.7497ZM14.1065 21.1615C13.1059 17.11 13.3921 12.8918 15.1618 9.01188C18.6327 11.4854 20.9921 14.9861 22.1539 19.0029C19.2883 18.5151 16.3436 19.3048 14.1065 21.1615Z" fill="#01A9B4" fill-opacity="0.5"/>
</svg>
