<svg width="60" height="49" viewBox="0 0 60 49" fill="none" xmlns="http://www.w3.org/2000/svg">
<path d="M57.0709 24.1754V23.0518C57.0709 20.982 55.9811 19.1588 54.3369 18.1045V5.84816C54.3369 2.62346 51.6688 0 48.3892 0H11.6108C8.33121 0 5.66297 2.62346 5.66297 5.84816V18.1044C4.01883 19.1587 2.92898 20.9819 2.92898 23.0517V24.1753C1.24547 24.6112 0 26.1206 0 27.911V41.0578C0 43.1261 1.66195 44.8196 3.74168 44.9158V46.4717C3.74168 47.4244 4.52719 48.1967 5.49609 48.1967C6.465 48.1967 7.25051 47.4244 7.25051 46.4717V44.9204H52.7494V46.4717C52.7494 47.4244 53.5349 48.1967 54.5038 48.1967C55.4727 48.1967 56.2582 47.4244 56.2582 46.4717V44.9158C58.338 44.8195 60 43.126 60 41.0577V27.911C60 26.1205 58.7545 24.6112 57.0709 24.1754ZM9.17191 5.84816C9.17191 4.52583 10.266 3.45009 11.6108 3.45009H48.3892C49.734 3.45009 50.8281 4.52583 50.8281 5.84816V17.148H48.4888V14.1074C48.4888 11.9792 46.7279 10.2477 44.5634 10.2477H35.123C32.9585 10.2477 31.1975 11.9792 31.1975 14.1074V17.148H28.8025V14.1074C28.8025 11.9792 27.0415 10.2477 24.877 10.2477H15.4366C13.2721 10.2477 11.5112 11.9792 11.5112 14.1074V17.148H9.17191V5.84816ZM44.9798 14.1073V16.7384C44.9798 16.9642 44.7929 17.1479 44.5634 17.1479H35.123C34.8933 17.1479 34.7065 16.9641 34.7065 16.7384V14.1073C34.7065 13.8815 34.8934 13.6978 35.123 13.6978H44.5634C44.793 13.6978 44.9798 13.8815 44.9798 14.1073ZM25.2935 14.1073V16.7384C25.2935 16.9642 25.1066 17.1479 24.877 17.1479H15.4366C15.207 17.1479 15.0202 16.9641 15.0202 16.7384V14.1073C15.0202 13.8815 15.2071 13.6978 15.4366 13.6978H24.877C25.1066 13.6978 25.2935 13.8815 25.2935 14.1073ZM6.43793 23.0517C6.43793 21.6987 7.55742 20.5981 8.93344 20.5981H51.0666C52.4426 20.5981 53.5621 21.6988 53.5621 23.0517V24.0482H6.43793V23.0517ZM56.4911 41.0577C56.4911 41.2851 56.3029 41.4702 56.0714 41.4702H3.92848C3.69715 41.4702 3.50883 41.2851 3.50883 41.0577V27.911C3.50883 27.6835 3.69703 27.4985 3.92848 27.4985H56.0715C56.3028 27.4985 56.4912 27.6835 56.4912 27.911V41.0577H56.4911Z" fill="#01A9B4" fill-opacity="0.5"/>
</svg>
