<svg width="60" height="60" viewBox="0 0 60 60" fill="none" xmlns="http://www.w3.org/2000/svg">
<g clip-path="url(#clip0)">
<path d="M34.0333 56.5997H31.7568V40.9927H47.4897C48.4606 40.9927 49.2475 40.2058 49.2475 39.2349V32.2041C49.2475 31.2332 48.4606 30.4463 47.4897 30.4463H31.7568V12.8137H58.2421C59.1068 12.8137 59.8429 12.1852 59.9779 11.331C60.1134 10.4773 59.6076 9.65148 58.7854 9.38415L30.5419 0.203239C30.189 0.0883408 29.8086 0.0883408 29.4552 0.203239L1.21434 9.38415C0.392201 9.65148 -0.113628 10.4773 0.0218702 11.331C0.156911 12.1852 0.893452 12.8137 1.75771 12.8137H28.2412V30.4463H12.5101C11.5392 30.4463 10.7523 31.2332 10.7523 32.2041V39.2349C10.7523 40.2058 11.5392 40.9927 12.5101 40.9927H28.2412V56.5997H25.4777C24.5067 56.5997 23.7198 57.3866 23.7198 58.3575C23.7198 59.328 24.5067 60.1153 25.4777 60.1153H34.0333C35.0042 60.1153 35.7911 59.328 35.7911 58.3575C35.7911 57.3866 35.0042 56.5997 34.0333 56.5997ZM29.9985 3.72344L47.1486 9.29809H12.8507L29.9985 3.72344ZM14.2679 33.9619H45.7319V37.4771H14.2679V33.9619Z" fill="#01A9B4" fill-opacity="0.5"/>
<path d="M14.6243 46.0565H3.51758V35.7197C3.51758 34.7488 2.73022 33.9619 1.75977 33.9619C0.788849 33.9619 0.00195312 34.7488 0.00195312 35.7197V58.3589C0.00195312 59.3298 0.788849 60.1167 1.75977 60.1167C2.73022 60.1167 3.51758 59.3298 3.51758 58.3589V49.5721H10.7521V58.3589C10.7521 59.3298 11.539 60.1167 12.5099 60.1167C13.4803 60.1167 14.2677 59.3298 14.2677 58.3589V49.5721H14.6243C15.5948 49.5721 16.3821 48.7852 16.3821 47.8143C16.3821 46.8438 15.5952 46.0565 14.6243 46.0565Z" fill="#01A9B4" fill-opacity="0.5"/>
<path d="M58.2415 33.9619C57.2706 33.9619 56.4837 34.7488 56.4837 35.7197V46.0565H45.377C44.406 46.0565 43.6191 46.8438 43.6191 47.8143C43.6191 48.7852 44.406 49.5721 45.377 49.5721H45.7336V58.3589C45.7336 59.3298 46.5204 60.1167 47.4914 60.1167C48.4623 60.1167 49.2492 59.3298 49.2492 58.3589V49.5721H56.4837V58.3589C56.4837 59.3298 57.2706 60.1167 58.2415 60.1167C59.2124 60.1167 59.9993 59.3298 59.9993 58.3589V35.7197C59.9993 34.7488 59.2124 33.9619 58.2415 33.9619Z" fill="#01A9B4" fill-opacity="0.5"/>
</g>
<defs>
<clipPath id="clip0">
<rect width="60" height="60" fill="white"/>
</clipPath>
</defs>
</svg>
