<svg width="33" height="54" viewBox="0 0 33 54" fill="none" xmlns="http://www.w3.org/2000/svg">
<path d="M30.4573 0H1.58203C0.708328 0 0 0.708328 0 1.58203V49.3754C0 50.2491 0.708328 50.9574 1.58203 50.9574H3.54386V52.418C3.54386 53.2917 4.25218 54 5.12589 54C5.99959 54 6.70792 53.2917 6.70792 52.418V50.9574H24.8822V52.418C24.8822 53.2917 25.5905 54 26.4642 54C27.3379 54 28.0462 53.2917 28.0462 52.418V50.9574H30.4573C31.331 50.9574 32.0393 50.2491 32.0393 49.3754V1.58203C32.0393 0.708328 31.331 0 30.4573 0ZM28.8752 47.7934H3.16406V20.2785H28.8752V47.7934ZM28.8752 17.1144H3.16406V3.16406H28.8752V17.1144Z" fill="#01A9B4" fill-opacity="0.5"/>
<path d="M7.91016 15.0805C8.78386 15.0805 9.49219 14.3722 9.49219 13.4985V6.50189C9.49219 5.62819 8.78386 4.91986 7.91016 4.91986C7.03645 4.91986 6.32812 5.62819 6.32812 6.50189V13.4985C6.32812 14.3722 7.03645 15.0805 7.91016 15.0805Z" fill="#01A9B4" fill-opacity="0.5"/>
<path d="M7.91016 44.3653C8.78386 44.3653 9.49219 43.6569 9.49219 42.7832V23.7673C9.49219 22.8936 8.78386 22.1853 7.91016 22.1853C7.03645 22.1853 6.32812 22.8936 6.32812 23.7673V42.7832C6.32812 43.6571 7.03645 44.3653 7.91016 44.3653Z" fill="#01A9B4" fill-opacity="0.5"/>
</svg>
