<svg width="60" height="58" viewBox="0 0 60 58" fill="none" xmlns="http://www.w3.org/2000/svg">
<path fill-rule="evenodd" clip-rule="evenodd" d="M52.6172 29.9739V7.99512C52.6172 6.79512 52.1493 5.66836 51.2997 4.82227C50.4532 3.97922 49.331 3.51562 48.1381 3.51562H48.1192C47.0926 3.51984 46.0903 3.88078 45.2967 4.53187L44.3958 5.27107C45.6749 7.70381 45.2928 10.7887 43.2496 12.8319L40.598 15.4836C40.2684 15.8131 39.8213 15.9984 39.355 15.9984C38.8887 15.9984 38.4417 15.8132 38.1121 15.4835L31.483 8.8543C30.7966 8.16793 30.7965 7.05488 31.4828 6.3684L34.1344 3.71668C36.2533 1.59799 39.4925 1.26557 41.9629 2.71963L43.0667 1.81395C44.4832 0.651797 46.2723 0.0075 48.1046 0H48.1385C50.2678 0 52.2703 0.827109 53.7806 2.33133C55.2974 3.84187 56.1328 5.85328 56.1328 7.99512V29.974H58.2422C59.213 29.974 60 30.7611 60 31.7318C60 32.7026 59.213 33.4897 58.2422 33.4897H55.842L54.4539 41.1243C53.3393 47.2546 48.7906 52.016 43.0078 53.572V56.1068C43.0078 57.0776 42.2208 57.8647 41.25 57.8647C40.2792 57.8647 39.4922 57.0776 39.4922 56.1068V54.1033C39.2919 54.1109 39.0907 54.1147 38.8888 54.1147H21.1112C20.9093 54.1147 20.7081 54.1109 20.5078 54.1033V56.1068C20.5078 57.0776 19.7208 57.8647 18.75 57.8647C17.7792 57.8647 16.9922 57.0776 16.9922 56.1068V53.572C11.2095 52.0159 6.66071 47.2547 5.54615 41.1243L4.15801 33.4897H1.75781C0.787031 33.4897 0 32.7026 0 31.7318C0 30.7611 0.787031 29.974 1.75781 29.974H5.60528L5.62502 29.9739H52.6172ZM9.00506 40.4954L7.73123 33.4897H52.2688L50.9951 40.4955C49.9307 46.3498 44.8392 50.599 38.8888 50.599H21.1112C15.1608 50.599 10.0695 46.3498 9.00506 40.4954ZM35.2118 7.61141L39.355 11.7547L40.7637 10.346C41.9061 9.20363 41.9061 7.34504 40.7637 6.2027C39.6214 5.06035 37.7626 5.06035 36.6205 6.2027L35.2118 7.61141ZM23.1323 17.9748C23.4754 18.3182 23.9253 18.4897 24.3752 18.4897C24.825 18.4897 25.2749 18.318 25.6182 17.9748L26.5557 17.0373C27.2422 16.3508 27.2422 15.2379 26.5557 14.5514C25.8692 13.8649 24.7561 13.8649 24.0698 14.5514L23.1323 15.4889C22.4458 16.1754 22.4458 17.2883 23.1323 17.9748ZM31.8749 19.4272C31.4251 19.4272 30.9752 19.2557 30.6321 18.9123C29.9456 18.2258 29.9456 17.1129 30.6321 16.4264L31.5696 15.4889C32.2559 14.8024 33.369 14.8024 34.0554 15.4889C34.7419 16.1754 34.7419 17.2883 34.0554 17.9748L33.1179 18.9123C32.7747 19.2555 32.3248 19.4272 31.8749 19.4272ZM23.1323 25.4748C23.4754 25.8182 23.9253 25.9897 24.3752 25.9897C24.825 25.9897 25.2749 25.818 25.6182 25.4748L26.5557 24.5373C27.2422 23.8508 27.2422 22.7379 26.5557 22.0514C25.8692 21.3649 24.7561 21.3649 24.0698 22.0514L23.1323 22.9889C22.4458 23.6754 22.4458 24.7883 23.1323 25.4748Z" fill="#01A9B4" fill-opacity="0.5"/>
</svg>
