<svg width="60" height="47" viewBox="0 0 60 47" fill="none" xmlns="http://www.w3.org/2000/svg">
<path d="M2.23867 35.8752C25.0407 29.3933 33.375 42.492 58.6855 35.8852C59.6249 35.64 60.1875 34.6797 59.9424 33.7404C59.6972 32.8011 58.7368 32.2385 57.7976 32.4836C52.8285 33.7807 48.5214 34.2608 44.621 34.266L39.5249 26.0523C42.5373 29.7954 48.136 30.0111 51.4163 26.5229C52.8585 24.9894 53.6172 22.986 53.5527 20.8818C53.3364 13.8278 44.6937 10.6627 39.9339 15.7239C37.641 18.1621 37.2251 21.6288 38.516 24.4261L31.5429 13.1874L41.8908 10.2013C45.1044 9.27401 46.6232 5.59549 44.9904 2.66967C43.8048 0.5453 41.3441 -0.467434 39.0069 0.207097L23.341 4.72784C19.2791 5.90006 17.4601 10.6218 19.6905 14.2166L24.4255 21.8482C21.0122 23.967 10.1861 30.6804 10.0711 30.7601C7.35367 31.0473 4.44344 31.5935 1.27762 32.4935C0.343871 32.759 -0.198004 33.7311 0.0674257 34.665C0.332738 35.599 1.30528 36.1406 2.23867 35.8752ZM42.4948 18.1326C44.1495 16.3731 46.9116 16.2933 48.666 17.9432C50.4236 19.5961 50.5085 22.3566 48.8554 24.1145C47.2027 25.8718 44.442 25.957 42.6842 24.3039C40.9265 22.6508 40.8416 19.8904 42.4948 18.1326ZM28.3394 21.4886L22.6777 12.3633C21.6777 10.7516 22.4918 8.63205 24.3155 8.10576L39.9815 3.58502C40.7393 3.36612 41.5362 3.69459 41.9204 4.38295C42.4506 5.33299 41.9551 6.52362 40.916 6.8235L28.3382 10.4531C27.2187 10.7762 26.7187 12.0805 27.3319 13.0688L40.3732 34.0877C32.1716 33.3993 25.5075 30.9257 17.0693 30.55L27.7725 23.9088C28.5974 23.3971 28.8512 22.3135 28.3394 21.4886Z" fill="#01A9B4" fill-opacity="0.5"/>
<path d="M57.7978 40.6868C33.5819 47.0081 25.0845 33.929 1.27762 40.6967C0.343871 40.9621 -0.198004 41.9343 0.0674257 42.8682C0.332855 43.8021 1.30539 44.3439 2.23891 44.0784C25.0409 37.5965 33.3753 50.6952 58.6858 44.0884C59.6251 43.8432 60.1878 42.8829 59.9426 41.9436C59.6974 41.0042 58.7371 40.4417 57.7978 40.6868Z" fill="#01A9B4" fill-opacity="0.5"/>
</svg>
