<svg width="60" height="42" viewBox="0 0 60 42" fill="none" xmlns="http://www.w3.org/2000/svg">
<path d="M56.0732 16.2252V7.52578C56.0732 3.37605 52.6971 0 48.5474 0H11.4526C7.30289 0 3.92684 3.37605 3.92684 7.52578V16.2252C1.59785 17.4185 0 19.8364 0 22.6208C0 25.347 1.56973 27.8191 3.94617 29.0282V36.3702C3.94617 37.341 4.7332 38.128 5.70398 38.128H7.23469V39.4242C7.23469 40.395 8.02172 41.182 8.9925 41.182C9.96328 41.182 10.7503 40.395 10.7503 39.4242V38.128H49.2497V39.4242C49.2497 40.395 50.0367 41.182 51.0075 41.182C51.9783 41.182 52.7653 40.395 52.7653 39.4242V38.128H54.296C55.2668 38.128 56.0538 37.341 56.0538 36.3702V29.0282C58.4303 27.8191 60 25.347 60 22.6208C60 19.8364 58.4021 17.4185 56.0732 16.2252ZM10.91 34.6124H7.4618V27.8392C7.4618 27.0546 6.94172 26.365 6.18738 26.1492C4.61426 25.6992 3.51562 24.2483 3.51562 22.6208C3.51562 20.5957 5.17418 18.9483 7.21277 18.9483C9.25137 18.9483 10.9099 20.5958 10.9099 22.6208V34.6124H10.91ZM45.5743 34.6124H14.4257V31.7077H45.5745V34.6124H45.5743ZM45.5743 28.192H14.4257V25.3608H45.5745V28.192H45.5743ZM45.617 21.8452H14.383C14.0016 18.3198 11.0525 15.5518 7.44246 15.4384V7.52578C7.44246 5.31457 9.24141 3.51562 11.4526 3.51562H48.5474C50.7586 3.51562 52.5575 5.31457 52.5575 7.52578V15.4384C48.9476 15.5517 45.9984 18.3197 45.617 21.8452ZM53.8126 26.1491C53.0583 26.3648 52.5382 27.0545 52.5382 27.8391V34.6123H49.09V22.6208C49.09 20.5957 50.7485 18.9483 52.7871 18.9483C54.8257 18.9483 56.4844 20.5957 56.4844 22.6208C56.4844 24.2483 55.3857 25.6992 53.8126 26.1491Z" fill="#01A9B4" fill-opacity="0.5"/>
<path d="M7.21359 21.0033C6.25207 21.0033 5.47266 21.7792 5.47266 22.7364C5.47266 23.6936 6.25207 24.4695 7.21359 24.4695C8.17512 24.4695 8.95453 23.6936 8.95453 22.7364C8.95465 21.7792 8.17512 21.0033 7.21359 21.0033Z" fill="#01A9B4" fill-opacity="0.5"/>
<path d="M52.7878 21.0033C51.8263 21.0033 51.0469 21.7792 51.0469 22.7364C51.0469 23.6936 51.8263 24.4695 52.7878 24.4695C53.7493 24.4695 54.5288 23.6936 54.5288 22.7364C54.5288 21.7792 53.7493 21.0033 52.7878 21.0033Z" fill="#01A9B4" fill-opacity="0.5"/>
<path d="M18.6257 14.831C17.6642 14.831 16.8848 15.6069 16.8848 16.5641C16.8848 17.5213 17.6642 18.2972 18.6257 18.2972C19.5872 18.2972 20.3666 17.5213 20.3666 16.5641C20.3666 15.607 19.5872 14.831 18.6257 14.831Z" fill="#01A9B4" fill-opacity="0.5"/>
<path d="M29.8835 18.2975C30.845 18.2975 31.6245 17.5215 31.6245 16.5644C31.6245 15.6072 30.845 14.8313 29.8835 14.8313C28.922 14.8313 28.1426 15.6072 28.1426 16.5644C28.1426 17.5215 28.922 18.2975 29.8835 18.2975Z" fill="#01A9B4" fill-opacity="0.5"/>
<path d="M41.3738 14.831C40.4122 14.831 39.6328 15.6069 39.6328 16.5641C39.6328 17.5213 40.4122 18.2972 41.3738 18.2972C42.3353 18.2972 43.1147 17.5213 43.1147 16.5641C43.1147 15.607 42.3352 14.831 41.3738 14.831Z" fill="#01A9B4" fill-opacity="0.5"/>
<path d="M12.532 7.29745C11.5704 7.29745 10.791 8.07335 10.791 9.03054C10.791 9.98773 11.5704 10.7636 12.532 10.7636C13.4935 10.7636 14.2729 9.98773 14.2729 9.03054C14.2729 8.07347 13.4935 7.29745 12.532 7.29745Z" fill="#01A9B4" fill-opacity="0.5"/>
<path d="M24.1784 10.7636C25.1399 10.7636 25.9194 9.9877 25.9194 9.03054C25.9194 8.07338 25.1399 7.29745 24.1784 7.29745C23.2169 7.29745 22.4375 8.07338 22.4375 9.03054C22.4375 9.9877 23.2169 10.7636 24.1784 10.7636Z" fill="#01A9B4" fill-opacity="0.5"/>
<path d="M35.823 7.29745C34.8614 7.29745 34.082 8.07335 34.082 9.03054C34.082 9.98773 34.8614 10.7636 35.823 10.7636C36.7845 10.7636 37.5639 9.98773 37.5639 9.03054C37.5639 8.07347 36.7845 7.29745 35.823 7.29745Z" fill="#01A9B4" fill-opacity="0.5"/>
<path d="M47.4675 7.29745C46.506 7.29745 45.7266 8.07335 45.7266 9.03054C45.7266 9.98773 46.506 10.7636 47.4675 10.7636C48.429 10.7636 49.2084 9.98773 49.2084 9.03054C49.2084 8.07347 48.429 7.29745 47.4675 7.29745Z" fill="#01A9B4" fill-opacity="0.5"/>
</svg>
