<svg width="55" height="55" viewBox="0 0 55 55" fill="none" xmlns="http://www.w3.org/2000/svg">
<path d="M52.0874 10.3314V1.61133C52.0874 0.721321 51.3661 0 50.4761 0C49.5865 0 48.8648 0.721321 48.8648 1.61133V3.36994L6.13522 28.0073V26.0427C6.13522 25.1527 5.41389 24.4313 4.52389 24.4313C3.63388 24.4313 2.91256 25.1527 2.91256 26.0427V33.1493C1.21143 33.8005 0 35.4517 0 37.3807V50.3154C0 52.8721 2.07836 54.9526 4.63257 54.9526L50.3674 55C52.9216 55 55 52.92 55 50.3628V14.5628C55 12.6338 53.7886 10.9826 52.0874 10.3314ZM29.1113 18.4795L35.9204 14.5536V32.2887H29.1113V18.4795ZM19.0796 24.2639L25.8887 20.3376V38.4789H19.0796V24.2639ZM5.82512 51.7299H4.63257C3.85502 51.7299 3.22266 51.095 3.22266 50.3154V37.3807C3.22266 36.6607 3.80634 36.0749 4.52389 36.0749C5.24143 36.0749 5.82512 36.6607 5.82512 37.3807V51.7299ZM6.13522 33.1493V31.7272L15.8569 26.122V44.6686H9.04778V37.3807C9.04778 35.4517 7.83634 33.8005 6.13522 33.1493ZM45.9522 51.7752L9.04778 51.7316V47.8913H16.5438C17.942 47.8913 19.0796 46.7533 19.0796 45.3543V41.7015H26.5756C27.9737 41.7015 29.1113 40.5631 29.1113 39.1645V35.5113H36.6074C38.0059 35.5113 39.1431 34.3733 39.1431 32.9743V29.369H45.9522V51.7752ZM48.8648 10.3314C47.1637 10.9826 45.9522 12.6338 45.9522 14.5628V26.1463H39.1431V12.6955L48.8648 7.09026V10.3314ZM51.7773 50.3628C51.7773 51.1429 51.145 51.7773 50.3674 51.7773H49.1749V14.5628C49.1749 13.8432 49.759 13.2574 50.4761 13.2574C51.1937 13.2574 51.7773 13.8432 51.7773 14.5628V50.3628Z" fill="#01A9B4" fill-opacity="0.5"/>
</svg>
