<svg width="60" height="49" viewBox="0 0 60 49" fill="none" xmlns="http://www.w3.org/2000/svg">
<path d="M54.4768 0.296875H5.52342C2.47782 0.296875 0 2.7747 0 5.8203C0 8.86589 2.47782 11.3438 5.52342 11.3438H7.59964C8.08093 17.5331 11.0815 23.0258 15.5737 26.7973L7.65694 46.5891C7.29636 47.4905 7.73487 48.5135 8.63617 48.874C9.53746 49.2347 10.5604 48.7961 10.9211 47.8949L14.2445 39.5863H45.7556L49.0789 47.8948C49.4395 48.7961 50.4625 49.235 51.3638 48.8739C52.2652 48.5134 52.7036 47.4903 52.3431 46.5891L44.4265 26.7975C48.9189 23.0261 51.9197 17.5332 52.4005 11.3438H54.4766C57.5222 11.3438 60 8.86589 60 5.8203C60 2.7747 57.5224 0.296875 54.4768 0.296875ZM7.53132 7.82819H5.52342C4.41635 7.82819 3.51564 6.92737 3.51564 5.8203C3.51564 4.71322 4.41635 3.81251 5.52342 3.81251H7.5312V7.82819H7.53132ZM15.6509 36.0705L18.5214 28.8941C21.8832 30.9002 25.8091 32.0548 30.0001 32.0548C34.1912 32.0548 38.1173 30.9002 41.4789 28.8943L44.3494 36.0705H15.6509ZM30.0001 28.5392C20.1418 28.5392 12.0174 20.9736 11.1277 11.3438H48.8727C47.9839 20.9738 39.859 28.5392 30.0001 28.5392ZM48.9533 7.82819H11.047V3.81251H48.9534V7.82819H48.9533ZM54.4768 7.82819H52.469V3.81251H54.4768C55.5839 3.81251 56.4846 4.71322 56.4846 5.8203C56.4846 6.92737 55.5839 7.82819 54.4768 7.82819Z" fill="#01A9B4" fill-opacity="0.5"/>
</svg>
