<svg width="60" height="61" viewBox="0 0 60 61" fill="none" xmlns="http://www.w3.org/2000/svg">
<path d="M58.2353 56.7059H56.0948L51.5233 1.61871C51.4475 0.703882 50.6828 0 49.7647 0H10.2353C9.31718 0 8.55247 0.703882 8.47671 1.61871L3.90518 56.7059H1.76471C0.790118 56.7059 0 57.496 0 58.4706C0 59.4452 0.790118 60.2353 1.76471 60.2353H10.2353C11.2099 60.2353 12 59.4452 12 58.4706C12 57.496 11.2099 56.7059 10.2353 56.7059H7.44659L11.8596 3.52941H18.8235V48C18.8235 48.9746 19.6136 49.7647 20.5882 49.7647H39.4118C40.3864 49.7647 41.1765 48.9746 41.1765 48C41.1765 46.6135 41.1765 4.65565 41.1765 3.52941H48.1404L52.5534 56.7059H49.7647C48.7901 56.7059 48 57.496 48 58.4706C48 59.4452 48.7901 60.2353 49.7647 60.2353H58.2353C59.2099 60.2353 60 59.4452 60 58.4706C60 57.496 59.2099 56.7059 58.2353 56.7059ZM37.6471 46.2353H22.3529V40.3529H37.6471V46.2353ZM22.4796 36.8235C22.9953 33.2707 25.1591 30 30 30C34.8409 30 37.0047 33.2707 37.5204 36.8235H22.4796ZM37.6471 29.3487C35.8407 27.5922 33.3134 26.4706 30 26.4706C26.6866 26.4706 24.1593 27.5922 22.3529 29.3487V3.52941H37.6471V29.3487Z" fill="#01A9B4" fill-opacity="0.5"/>
</svg>
