<svg width="19" height="19" viewBox="0 0 19 19" fill="none" xmlns="http://www.w3.org/2000/svg">
<path d="M14.916 11.2531C15.1883 11.2531 15.4482 11.3026 15.6957 11.4015C15.9432 11.5005 16.166 11.6489 16.364 11.8468L18.406 13.8878C18.5978 14.0795 18.7432 14.2991 18.8422 14.5465C18.9412 14.7938 18.9938 15.0567 19 15.335C19 15.6071 18.9505 15.8669 18.8515 16.1143C18.7525 16.3617 18.604 16.5843 18.406 16.7822L18.276 16.9121C17.9419 17.2461 17.6356 17.543 17.3571 17.8027C17.0787 18.0625 16.7878 18.2789 16.4846 18.4521C16.1814 18.6253 15.8442 18.7613 15.4729 18.8603C15.1017 18.9593 14.6592 19.0056 14.1456 18.9995C13.3722 18.9995 12.577 18.8789 11.7602 18.6376C10.9434 18.3964 10.1328 18.0625 9.3284 17.6357C8.52398 17.209 7.73194 16.7018 6.95227 16.1143C6.1726 15.5267 5.43935 14.8866 4.75249 14.1939C4.06564 13.5012 3.4283 12.7653 2.84045 11.986C2.25261 11.2067 1.75139 10.4151 1.33681 9.61105C0.92222 8.80704 0.594265 7.99993 0.352939 7.18973C0.111613 6.37954 -0.0059558 5.60026 0.000232044 4.85191C0.000232044 4.33858 0.0435469 3.89946 0.130177 3.53457C0.216807 3.16967 0.349845 2.83569 0.529293 2.53264C0.70874 2.22959 0.925314 1.942 1.17902 1.66987C1.43272 1.39775 1.72973 1.0916 2.07007 0.751443L2.21857 0.60301C2.4104 0.411284 2.63006 0.262851 2.87758 0.15771C3.12509 0.0525701 3.38808 0 3.66653 0C3.93879 0 4.19868 0.0525701 4.4462 0.15771C4.69371 0.262851 4.91647 0.411284 5.11448 0.60301L7.15647 2.64397C7.34829 2.83569 7.49371 3.05525 7.59271 3.30264C7.69172 3.55003 7.74432 3.81288 7.7505 4.09119C7.7505 4.36332 7.7041 4.60452 7.61128 4.8148C7.51846 5.02508 7.40399 5.2199 7.26785 5.39926C7.13172 5.57862 6.98321 5.73633 6.82233 5.87239C6.66144 6.00845 6.50984 6.14761 6.36752 6.28986C6.2252 6.43211 6.11073 6.56817 6.0241 6.69805C5.93747 6.82793 5.89106 6.97945 5.88487 7.15263C5.88487 7.38765 5.96841 7.58865 6.13548 7.75564L11.2497 12.8673C11.4168 13.0343 11.6179 13.1178 11.853 13.1178C12.0139 13.1178 12.1624 13.0714 12.2986 12.9786C12.4347 12.8859 12.5739 12.7714 12.7162 12.6354C12.8586 12.4993 12.9978 12.3509 13.1339 12.1901C13.2701 12.0293 13.4278 11.8778 13.6073 11.7355C13.7867 11.5933 13.9786 11.4788 14.1828 11.3923C14.387 11.3057 14.6314 11.2593 14.916 11.2531ZM14.1456 17.812C14.5912 17.812 14.9624 17.7718 15.2595 17.6914C15.5565 17.611 15.8287 17.4904 16.0762 17.3296C16.3238 17.1688 16.5589 16.9709 16.7817 16.7358C17.0044 16.5008 17.2674 16.2349 17.5706 15.938C17.7377 15.771 17.8212 15.57 17.8212 15.335C17.8212 15.2237 17.7779 15.0938 17.6913 14.9454C17.6046 14.7969 17.4871 14.6361 17.3386 14.463C17.1901 14.2898 17.0323 14.1197 16.8652 13.9527C16.6981 13.7857 16.5249 13.6187 16.3454 13.4518C16.166 13.2848 16.0082 13.1394 15.872 13.0157C15.7359 12.892 15.6214 12.7838 15.5286 12.691C15.3615 12.5241 15.1574 12.4406 14.916 12.4406C14.7551 12.4406 14.6066 12.4869 14.4705 12.5797C14.3344 12.6725 14.1982 12.7869 14.0621 12.923C13.926 13.059 13.7867 13.2075 13.6444 13.3683C13.5021 13.5291 13.3412 13.6806 13.1618 13.8228C12.9823 13.9651 12.7905 14.0795 12.5863 14.1661C12.3821 14.2527 12.1377 14.2991 11.853 14.3053C11.5808 14.3053 11.3209 14.2558 11.0734 14.1568C10.8259 14.0579 10.6031 13.9094 10.4051 13.7115L5.29084 8.59985C5.09901 8.40812 4.9536 8.18857 4.85459 7.94118C4.75559 7.69379 4.70299 7.43094 4.6968 7.15263C4.6968 6.8805 4.74321 6.6393 4.83603 6.42901C4.92885 6.21873 5.04332 6.02392 5.17946 5.84456C5.31559 5.6652 5.4641 5.50749 5.62498 5.37143C5.78586 5.23536 5.93747 5.09312 6.07979 4.94468C6.22211 4.79625 6.33658 4.66019 6.42321 4.53649C6.50984 4.4128 6.55625 4.26436 6.56244 4.09119C6.56244 3.84999 6.4789 3.64589 6.31183 3.4789C6.23139 3.3985 6.1262 3.28718 5.99625 3.14493C5.86631 3.00268 5.72089 2.84497 5.56001 2.6718C5.39912 2.49863 5.23205 2.32545 5.05879 2.15228C4.88553 1.97911 4.71227 1.81831 4.53901 1.66987C4.36575 1.52144 4.20796 1.40702 4.06564 1.32662C3.92332 1.24622 3.79029 1.19984 3.66653 1.18747C3.43139 1.18747 3.23029 1.27096 3.06321 1.43795L2.27426 2.2265C2.04531 2.45533 1.8473 2.69035 1.68023 2.93156C1.51316 3.17276 1.3894 3.4418 1.30896 3.73866C1.22852 4.03553 1.1852 4.40661 1.17902 4.85191C1.17902 5.5446 1.2904 6.25893 1.51316 6.99492C1.73592 7.7309 2.04841 8.46688 2.45062 9.20286C2.85283 9.93884 3.3262 10.6625 3.87073 11.3737C4.41526 12.0849 5.00929 12.7622 5.65283 13.4054C6.29636 14.0486 6.97393 14.6361 7.68553 15.168C8.39713 15.6999 9.12111 16.1638 9.85746 16.5596C10.5938 16.9554 11.324 17.2615 12.048 17.478C12.7719 17.6945 13.4712 17.8058 14.1456 17.812Z" fill="#01A9B4"/>
</svg>
