<svg width="19" height="27" viewBox="0 0 19 27" fill="none" xmlns="http://www.w3.org/2000/svg">
<path d="M9.5 4C8.60999 4 7.73996 4.26392 6.99994 4.75839C6.25991 5.25285 5.68314 5.95566 5.34254 6.77792C5.00195 7.60019 4.91283 8.50499 5.08647 9.3779C5.2601 10.2508 5.68869 11.0526 6.31802 11.682C6.94736 12.3113 7.74918 12.7399 8.62209 12.9135C9.49501 13.0872 10.3998 12.998 11.2221 12.6575C12.0443 12.3169 12.7471 11.7401 13.2416 11.0001C13.7361 10.26 14 9.39001 14 8.5C14 7.30652 13.5259 6.16193 12.682 5.31802C11.8381 4.47411 10.6935 4 9.5 4ZM9.5 11.4293C8.92064 11.4293 8.35428 11.2575 7.87256 10.9356C7.39083 10.6138 7.01538 10.1563 6.79366 9.621C6.57195 9.08574 6.51394 8.49675 6.62697 7.92852C6.74 7.36028 7.01899 6.83833 7.42866 6.42866C7.83833 6.01899 8.36029 5.73999 8.92852 5.62697C9.49675 5.51394 10.0857 5.57195 10.621 5.79366C11.1563 6.01537 11.6138 6.39083 11.9356 6.87256C12.2575 7.35428 12.4293 7.92063 12.4293 8.5C12.4272 9.27554 12.1177 10.0186 11.5686 10.5663C11.0194 11.1139 10.2755 11.4215 9.5 11.4215V11.4293Z" fill="#01A9B4"/>
<path d="M9.49597 8.20628e-10C6.9851 0.00215666 4.57708 1.02602 2.79785 2.84797C1.01862 4.66992 0.0127771 7.14189 0 9.72398C0 13.5953 2.11201 16.8367 3.65974 19.1993L3.94187 19.6303C5.48177 21.9255 7.13372 24.1389 8.89139 26.2622L9.50403 27L10.1167 26.2622C11.8741 24.1388 13.5261 21.9253 15.0662 19.6303L15.3483 19.191C16.888 16.8284 19 13.5953 19 9.72398C18.9872 7.14046 17.9803 4.66723 16.1993 2.84505C14.4183 1.02286 12.0082 -3.34545e-05 9.49597 8.20628e-10ZM14.0021 18.2376L13.7119 18.677C12.3254 20.8158 10.4875 23.2115 9.49597 24.397C8.54476 23.2115 6.66653 20.8158 5.28002 18.677L4.99788 18.2376C3.57106 16.0491 1.61222 13.0565 1.61222 9.69082C1.61222 8.62613 1.81614 7.57187 2.21233 6.58823C2.60853 5.60459 3.18924 4.71083 3.92132 3.95798C4.65339 3.20513 5.52249 2.60794 6.47899 2.2005C7.43549 1.79306 8.46066 1.58336 9.49597 1.58336C10.5313 1.58336 11.5564 1.79306 12.5129 2.2005C13.4694 2.60794 14.3385 3.20513 15.0706 3.95798C15.8027 4.71083 16.3834 5.60459 16.7796 6.58823C17.1758 7.57187 17.3797 8.62613 17.3797 9.69082C17.3797 13.0897 15.4289 16.0823 14.0021 18.2376Z" fill="#01A9B4"/>
</svg>
