<svg width="29" height="29" viewBox="0 0 29 29" fill="none" xmlns="http://www.w3.org/2000/svg">
<path d="M28.597 24.1145L24.5084 28.1704C23.9048 28.7894 23.1048 28.9991 22.3257 29C18.8803 28.8968 15.6235 27.2043 12.9495 25.4665C8.56032 22.2733 4.53304 18.314 2.00545 13.5293C1.03603 11.5229 -0.101447 8.96288 0.00723018 6.72338C0.016921 5.88093 0.243943 5.05412 0.837258 4.51109L4.92592 0.424484C5.77494 -0.297688 6.59601 -0.0479984 7.13932 0.793195L10.4287 7.03066C10.7749 7.76961 10.5763 8.56135 10.0597 9.08937L8.55338 10.595C8.46039 10.7223 8.40118 10.8673 8.39968 11.0251C8.97732 13.2611 10.7272 15.322 12.2731 16.7402C13.819 18.1585 15.4807 20.08 17.6376 20.5349C17.9042 20.6093 18.2308 20.6354 18.4215 20.4581L20.1738 18.676C20.7779 18.2181 21.6501 17.9943 22.295 18.3687H22.3257L28.2589 21.8715C29.1298 22.4175 29.2207 23.4726 28.597 24.1145Z" fill="white"/>
</svg>
