<svg width="25" height="26" viewBox="0 0 25 26" fill="none" xmlns="http://www.w3.org/2000/svg">
<path d="M12.5 0C9.10192 0 8.67843 0.0170646 7.34857 0.0755719C6.01325 0.14383 5.11001 0.35917 4.31304 0.68096C3.47892 1.00846 2.72352 1.5212 2.09948 2.18346C1.46092 2.83094 0.967618 3.617 0.654769 4.48556C0.345356 5.31441 0.138299 6.25378 0.0726653 7.64252C0.0125016 9.02638 0 9.466 0 13C0 16.534 0.0164083 16.9744 0.0726653 18.3575C0.138299 19.7422 0.345356 20.6856 0.654769 21.5144C0.969669 22.3819 1.4627 23.1675 2.09948 23.8165C2.72206 24.4806 3.47788 24.9937 4.31304 25.319C5.11001 25.6368 6.01716 25.8562 7.34857 25.9244C8.67921 25.987 9.10192 26 12.5 26C15.8981 26 16.3216 25.9829 17.6514 25.9244C18.9828 25.8562 19.89 25.636 20.687 25.319C21.5211 24.9915 22.2765 24.4788 22.9005 23.8165C23.5399 23.1698 24.0333 22.3835 24.3452 21.5144C24.6507 20.6856 24.8617 19.7422 24.9273 18.3575C24.9875 16.9736 25 16.534 25 13C25 9.466 24.9836 9.02557 24.9273 7.64252C24.8617 6.25784 24.65 5.30954 24.3452 4.48556C24.0303 3.61808 23.5373 2.83246 22.9005 2.18346C22.2786 1.5185 21.5226 1.00533 20.687 0.68096C19.89 0.35917 18.9828 0.14383 17.6514 0.0755719C16.3208 0.0130016 15.8981 0 12.5 0ZM12.5 2.34029C15.8371 2.34029 16.2356 2.35736 17.5545 2.41586C18.7711 2.47518 19.4337 2.68646 19.8736 2.86523C20.4174 3.07401 20.9096 3.4063 21.3144 3.83792C21.7287 4.25708 22.047 4.76782 22.2457 5.33229C22.4176 5.78979 22.6208 6.47887 22.6778 7.74409C22.7341 9.11576 22.7505 9.531 22.7505 13.0008C22.7505 16.4706 22.7341 16.8859 22.6731 18.2575C22.6075 19.5228 22.4044 20.2118 22.2332 20.6693C21.9965 21.2796 21.7324 21.7062 21.2964 22.1678C20.8903 22.5967 20.3984 22.9274 19.8556 23.1364C19.4212 23.3152 18.7492 23.5264 17.528 23.5858C16.202 23.6443 15.8114 23.6613 12.4656 23.6613C9.11989 23.6613 8.73 23.6443 7.40249 23.5809C6.18593 23.5126 5.51475 23.3013 5.07485 23.1234C4.48103 22.8772 4.07395 22.6025 3.63795 22.1491C3.19806 21.6916 2.91833 21.256 2.70268 20.6506C2.52766 20.1988 2.32763 19.5 2.26278 18.2299C2.21825 16.8672 2.19715 16.4446 2.19715 12.9813C2.19715 9.51963 2.21825 9.09626 2.26278 7.71646C2.32763 6.44637 2.52766 5.74916 2.70268 5.29572C2.91833 4.67733 3.19884 4.25478 3.63795 3.79729C4.07317 3.34467 4.48103 3.05213 5.07485 2.82298C5.51475 2.64502 6.16952 2.43374 7.39077 2.37036C8.71671 2.32079 9.10739 2.30291 12.4484 2.30291L12.5 2.34029ZM12.5 6.32773C11.6572 6.32741 10.8226 6.49981 10.0439 6.8351C9.26517 7.17038 8.55762 7.66196 7.96166 8.28175C7.36571 8.90155 6.89303 9.6374 6.57065 10.4473C6.24826 11.2571 6.08248 12.1251 6.08279 13.0016C6.08248 13.8781 6.24826 14.7461 6.57065 15.556C6.89303 16.3659 7.36571 17.1017 7.96166 17.7215C8.55762 18.3413 9.26517 18.8329 10.0439 19.1682C10.8226 19.5034 11.6572 19.6758 12.5 19.6755C13.3428 19.6758 14.1774 19.5034 14.9561 19.1682C15.7348 18.8329 16.4424 18.3413 17.0383 17.7215C17.6343 17.1017 18.107 16.3659 18.4294 15.556C18.7517 14.7461 18.9175 13.8781 18.9172 13.0016C18.9175 12.1251 18.7517 11.2571 18.4294 10.4473C18.107 9.6374 17.6343 8.90155 17.0383 8.28175C16.4424 7.66196 15.7348 7.17038 14.9561 6.8351C14.1774 6.49981 13.3428 6.32741 12.5 6.32773ZM12.5 17.3352C10.1966 17.3352 8.33307 15.3972 8.33307 13.0016C8.33307 10.6061 10.1966 8.66802 12.5 8.66802C14.8034 8.66802 16.6669 10.6061 16.6669 13.0016C16.6669 15.3972 14.8034 17.3352 12.5 17.3352ZM20.676 6.0612C20.6756 6.47535 20.5171 6.87239 20.2354 7.16509C19.9537 7.45779 19.5717 7.6222 19.1735 7.6222C18.9766 7.6222 18.7816 7.58187 18.5997 7.5035C18.4178 7.42514 18.2525 7.31027 18.1133 7.16547C17.974 7.02067 17.8636 6.84876 17.7882 6.65957C17.7129 6.47038 17.6741 6.2676 17.6741 6.06282C17.6741 5.85804 17.7129 5.65526 17.7882 5.46607C17.8636 5.27688 17.974 5.10497 18.1133 4.96017C18.2525 4.81537 18.4178 4.7005 18.5997 4.62214C18.7816 4.54377 18.9766 4.50344 19.1735 4.50344C19.9994 4.50344 20.676 5.20228 20.676 6.0612Z" fill="white"/>
</svg>
