<svg width="25" height="35" viewBox="0 0 25 35" fill="none" xmlns="http://www.w3.org/2000/svg">
<path d="M12.072 7C10.8711 7 9.69713 7.38122 8.69859 8.09545C7.70005 8.80968 6.92178 9.82484 6.46221 11.0126C6.00263 12.2003 5.88238 13.5072 6.11667 14.7681C6.35096 16.029 6.92927 17.1872 7.77846 18.0962C8.62764 19.0052 9.70957 19.6243 10.8874 19.8751C12.0653 20.1259 13.2862 19.9972 14.3957 19.5052C15.5052 19.0132 16.4535 18.1801 17.1207 17.1112C17.7879 16.0423 18.144 14.7856 18.144 13.5C18.144 11.7761 17.5043 10.1228 16.3656 8.90381C15.2269 7.68482 13.6824 7 12.072 7ZM12.072 17.7312C11.2903 17.7312 10.5261 17.4831 9.87605 17.0181C9.22604 16.5532 8.71942 15.8924 8.42026 15.1192C8.12109 14.3461 8.04282 13.4953 8.19533 12.6745C8.34784 11.8537 8.72429 11.0998 9.27708 10.5081C9.82987 9.91631 10.5342 9.51333 11.3009 9.35006C12.0676 9.1868 12.8624 9.27059 13.5846 9.59084C14.3069 9.9111 14.9242 10.4534 15.3585 11.1492C15.7928 11.8451 16.0247 12.6631 16.0247 13.5C16.0219 14.6202 15.6042 15.6935 14.8632 16.4846C14.1223 17.2757 13.1185 17.7199 12.072 17.7199V17.7312Z" fill="white"/>
<path d="M12.1389 1.06378e-09C8.92918 0.00279567 5.85097 1.33003 3.57655 3.69181C1.30213 6.0536 0.0163332 9.25801 0 12.6052C0 17.6236 2.69982 21.8253 4.67831 24.8879L5.03897 25.4467C7.00745 28.4219 9.11918 31.2912 11.366 34.0436L12.1492 35L12.9323 34.0436C15.1789 31.291 17.2906 28.4217 19.2594 25.4467L19.6201 24.8772C21.5882 21.8146 24.2881 17.6236 24.2881 12.6052C24.2717 9.25615 22.9845 6.05012 20.7079 3.68803C18.4312 1.32594 15.3504 -4.3367e-05 12.1389 1.06378e-09ZM17.8992 23.6414L17.5282 24.2109C15.7558 26.9834 13.4064 30.089 12.1389 31.6257C10.9229 30.089 8.52195 26.9834 6.74955 24.2109L6.38888 23.6414C4.56496 20.8044 2.06093 16.9251 2.06093 12.5622C2.06093 11.182 2.3216 9.81539 2.82807 8.5403C3.33453 7.2652 4.07687 6.10663 5.01269 5.13071C5.94852 4.1548 7.0595 3.38066 8.28221 2.8525C9.50493 2.32434 10.8154 2.0525 12.1389 2.0525C13.4623 2.0525 14.7728 2.32434 15.9955 2.8525C17.2183 3.38066 18.3292 4.1548 19.2651 5.13071C20.2009 6.10663 20.9432 7.2652 21.4497 8.5403C21.9562 9.81539 22.2168 11.182 22.2168 12.5622C22.2168 16.9681 19.7231 20.8474 17.8992 23.6414Z" fill="white"/>
</svg>
