<svg width="194" height="19" viewBox="0 0 194 19" fill="none" xmlns="http://www.w3.org/2000/svg">
<path d="M5.94141 2.42578L4.38281 2.67188L8.20312 13.7578L8.58984 15.1055H8.66016L9.04688 13.7578L12.8555 2.66016L11.3203 2.42578V0.9375H16.6992V2.42578L15.3281 2.61328L9.60938 18H7.62891L1.91016 2.61328L0.550781 2.42578V0.9375H5.94141V2.42578ZM18.0469 2.42578V0.9375H24.1758V2.42578L22.2656 2.75391V16.1953L24.1758 16.5234V18H18.0469V16.5234L19.957 16.1953V2.75391L18.0469 2.42578ZM25.8164 18V16.5234L27.7266 16.1953V2.75391L25.8164 2.42578V0.9375H27.7266H30.0352H31.9453V2.42578L30.0352 2.75391V16.1953H35.9648L36.1406 14.2383H38.1094V18H25.8164ZM39.8789 18V16.5234L41.7891 16.1953V2.75391L39.8789 2.42578V0.9375H41.7891H44.0977H46.0078V2.42578L44.0977 2.75391V16.1953H50.0273L50.2031 14.2383H52.1719V18H39.8789ZM53.9883 16.5234L55.2539 16.3477L61.2188 0.9375H63.1992L69.0586 16.3477L70.3125 16.5234V18H65.4141V16.5234L66.7031 16.3008L65.5781 13.1602H58.7461L57.5859 16.3008L58.875 16.5234V18H53.9883V16.5234ZM59.4609 11.2266H64.875L62.2266 3.90234H62.1562L59.4609 11.2266ZM82.8398 2.42578L81.2812 2.67188L85.1016 13.7578L85.4883 15.1055H85.5586L85.9453 13.7578L89.7539 2.66016L88.2188 2.42578V0.9375H93.5977V2.42578L92.2266 2.61328L86.5078 18H84.5273L78.8086 2.61328L77.4492 2.42578V0.9375H82.8398V2.42578ZM94.9453 2.42578V0.9375H101.074V2.42578L99.1641 2.75391V16.1953L101.074 16.5234V18H94.9453V16.5234L96.8555 16.1953V2.75391L94.9453 2.42578ZM117.914 9.59766C117.914 12.082 117.199 14.1445 115.77 15.7852C114.348 17.4258 112.504 18.2461 110.238 18.2461C108.035 18.2461 106.246 17.4258 104.871 15.7852C103.496 14.1445 102.809 12.082 102.809 9.59766V9.35156C102.809 6.875 103.496 4.8125 104.871 3.16406C106.246 1.51562 108.035 0.691406 110.238 0.691406C112.504 0.691406 114.348 1.51562 115.77 3.16406C117.199 4.8125 117.914 6.875 117.914 9.35156V9.59766ZM115.605 9.32812C115.605 7.34375 115.129 5.72656 114.176 4.47656C113.23 3.21875 111.918 2.58984 110.238 2.58984C108.629 2.58984 107.371 3.21875 106.465 4.47656C105.566 5.73438 105.117 7.35156 105.117 9.32812V9.59766C105.117 11.5977 105.566 13.2266 106.465 14.4844C107.371 15.7344 108.629 16.3594 110.238 16.3594C111.941 16.3594 113.262 15.7344 114.199 14.4844C115.137 13.2344 115.605 11.6055 115.605 9.59766V9.32812ZM119.66 18V16.5234L121.57 16.1953V2.75391L119.66 2.42578V0.9375H121.57H123.879H125.789V2.42578L123.879 2.75391V16.1953H129.809L129.984 14.2383H131.953V18H119.66ZM133.723 18V16.5234L135.633 16.1953V2.75391L133.723 2.42578V0.9375H146.824V5.03906H144.844L144.656 2.75391H137.941V8.27344H144.469V10.0898H137.941V16.1953H144.797L144.984 13.9102H146.953V18H133.723ZM163.043 0.9375V4.71094H161.074L160.898 2.75391H157.113V16.1953L159.023 16.5234V18H152.895V16.5234L154.805 16.1953V2.75391H151.008L150.844 4.71094H148.863V0.9375H163.043ZM178.277 0.9375V4.71094H176.309L176.133 2.75391H172.348V16.1953L174.258 16.5234V18H168.129V16.5234L170.039 16.1953V2.75391H166.242L166.078 4.71094H164.098V0.9375H178.277ZM177.246 16.5234L178.512 16.3477L184.477 0.9375H186.457L192.316 16.3477L193.57 16.5234V18H188.672V16.5234L189.961 16.3008L188.836 13.1602H182.004L180.844 16.3008L182.133 16.5234V18H177.246V16.5234ZM182.719 11.2266H188.133L185.484 3.90234H185.414L182.719 11.2266Z" fill="white"/>
</svg>
